<svg width="151" height="38" viewBox="0 0 151 38" fill="none" xmlns="http://www.w3.org/2000/svg">
<g clip-path="url(#clip0)">
<path d="M19.7292 0L39.4584 5.74468L19.7292 23.2727L0 5.75242" fill="#4E5268"/>
<path d="M19.7446 23.2727L39.4854 5.75243L19.7446 0.00775146V23.2727Z" fill="#6D7593"/>
<path d="M19.7292 38L0 5.75244L19.7292 11.5165L39.4584 5.75244" fill="#4F546B"/>
<path d="M19.7447 11.5165L0 5.75244L19.7447 38V11.5165Z" fill="#343647"/>
<path d="M19.7446 0.00775146V11.5165L31.9535 7.94972L19.7446 0.00775146Z" fill="#7983A3"/>
<path opacity="0.4" d="M31.9535 7.94971L19.7446 38V11.5164L31.9535 7.94971Z" fill="#626A89"/>
<path d="M7.48938 7.98065L19.7447 38V11.5164L7.48938 7.98065Z" fill="#44485E"/>
<path d="M19.7447 11.5165V14.0348L0 5.75244L19.7447 11.5165Z" fill="#FF5050"/>
<path d="M19.7446 11.5165V13.0445L39.4854 5.75244L19.7446 11.5165Z" fill="#18B4EA"/>
<path d="M19.7447 0V11.5048L7.48938 7.97292L19.7447 0Z" fill="#5A617A"/>
<path d="M19.7446 13.5435V11.5048L31.9535 7.94971L31.5396 9.25338L19.7446 13.5435Z" fill="#39CCFF"/>
<path d="M19.7447 14.7775V11.5048L7.48938 7.9729L8.30176 10.1547L19.7447 14.7775Z" fill="#FF7373"/>
<path d="M63.3307 7.86847L57.6015 20.3714L51.9071 7.86847H47.5474L57.7369 29.9691L67.6518 7.86847H63.3307Z" fill="white"/>
<path d="M111.66 7.86847H107.594V30.1199H111.66V7.86847Z" fill="white"/>
<path d="M133.01 7.86847H114.712V11.9342H121.83V30.1238H125.896V11.9342H133.01V7.86847Z" fill="white"/>
<path d="M146.491 30.2669H150.812L140.863 7.91492L130.677 30.2669H135.048L140.75 18.5842L146.491 30.2669Z" fill="white"/>
<path d="M81.2611 20.5493V16.4874H74.5725V11.9342H85.9342V7.86847H70.5067V30.1238H86.321V26.058H74.5725V20.5493H81.2611Z" fill="white"/>
<path d="M95.1025 20.5029L99.8298 30.0851L104.29 30.1276L99.3965 20.2863L99.5048 20.2592C100.98 19.8694 102.264 18.9568 103.117 17.6913C103.969 16.4259 104.333 14.8937 104.141 13.3799C103.948 11.8661 103.212 10.4737 102.07 9.46204C100.927 8.45034 99.4563 7.88814 97.9303 7.88007H89.2611V30.1238H93.3269V20.4526H95.0754L95.1025 20.5029ZM93.3269 11.5474H97.5822C99.2302 11.5474 100.573 12.7079 100.573 14.147C100.573 15.5861 99.2302 16.7505 97.5822 16.7505H93.3269V11.5474Z" fill="white"/>
</g>
<defs>
<clipPath id="clip0">
<rect width="150.812" height="38" fill="white"/>
</clipPath>
</defs>
</svg>
